SourceCode-ExtraLightItalic.ufo
<glyph name="slash" format="2">
	<unicode hex="002F"/>
	<advance width="600"/>
	<outline>
		<contour>
			<point x="30" y="-160" type="line"/>
			<point x="62" y="-160" type="line"/>
			<point x="562" y="710" type="line"/>
			<point x="530" y="710" type="line"/>
		</contour>
	</outline>
</glyph>
<glyph name="one" format="2">
	<unicode hex="0031"/>
	<advance width="600"/>
	<outline>
		<contour>
			<point x="54" y="0" type="line"/>
			<point x="464" y="0" type="line"/>
			<point x="468" y="26" type="line"/>
			<point x="280" y="26" type="line"/>
			<point x="404" y="640" type="line"/>
			<point x="380" y="640" type="line"/>
			<point x="346" y="622"/>
			<point x="286" y="608"/>
			<point x="226" y="602" type="curve"/>
			<point x="222" y="582" type="line"/>
			<point x="364" y="582" type="line"/>
			<point x="252" y="26" type="line"/>
			<point x="60" y="26" type="line"/>
		</contour>
	</outline>
</glyph>
<glyph name="l" format="2">
	<unicode hex="006C"/>
	<advance width="600"/>
	<outline>
		<contour>
			<point x="324" y="-12" type="curve" smooth="yes"/>
			<point x="366" y="-12"/>
			<point x="408" y="0"/>
			<point x="445" y="20" type="curve"/>
			<point x="434" y="44" type="line"/>
			<point x="396" y="24"/>
			<point x="362" y="14"/>
			<point x="328" y="14" type="curve" smooth="yes"/>
			<point x="274" y="14"/>
			<point x="242" y="40"/>
			<point x="242" y="100" type="curve" smooth="yes"/>
			<point x="242" y="114"/>
			<point x="244" y="132"/>
			<point x="248" y="150" type="curve" smooth="yes"/>
			<point x="362" y="722" type="line"/>
			<point x="158" y="722" type="line"/>
			<point x="152" y="696" type="line"/>
			<point x="330" y="696" type="line"/>
			<point x="218" y="142" type="line" smooth="yes"/>
			<point x="214" y="124"/>
			<point x="212" y="110"/>
			<point x="212" y="96" type="curve" smooth="yes"/>
			<point x="212" y="22"/>
			<point x="260" y="-12"/>
		</contour>
	</outline>
	<anchor name="aboveUC" x="344" y="740"/>
	<anchor name="baseLC" x="330" y="0"/>
	<anchor name="belowLC" x="330" y="-20"/>
	<anchor name="center" x="286" y="400"/>
</glyph>
<glyph name="oe" format="2">
	<unicode hex="0153"/>
	<advance width="600"/>
	<outline>
		<contour>
			<point x="119" y="-12" type="curve" smooth="yes"/>
			<point x="187" y="-12"/>
			<point x="249" y="33"/>
			<point x="292" y="125" type="curve"/>
			<point x="289" y="133" type="line"/>
			<point x="292" y="37"/>
			<point x="341" y="-12"/>
			<point x="414" y="-12" type="curve" smooth="yes"/>
			<point x="464" y="-12"/>
			<point x="516" y="9"/>
			<point x="545" y="30" type="curve"/>
			<point x="532" y="51" type="line"/>
			<point x="505" y="30"/>
			<point x="462" y="13"/>
			<point x="420" y="13" type="curve" smooth="yes"/>
			<point x="349" y="13"/>
			<point x="316" y="62"/>
			<point x="316" y="150" type="curve" smooth="yes"/>
			<point x="316" y="302"/>
			<point x="399" y="464"/>
			<point x="494" y="464" type="curve" smooth="yes"/>
			<point x="555" y="464"/>
			<point x="572" y="411"/>
			<point x="572" y="343" type="curve" smooth="yes"/>
			<point x="572" y="316"/>
			<point x="567" y="285"/>
			<point x="560" y="260" type="curve"/>
			<point x="570" y="268" type="line"/>
			<point x="318" y="268" type="line"/>
			<point x="318" y="242" type="line"/>
			<point x="585" y="242" type="line"/>
			<point x="591" y="262"/>
			<point x="601" y="305"/>
			<point x="601" y="346" type="curve" smooth="yes"/>
			<point x="601" y="440"/>
			<point x="566" y="490"/>
			<point x="499" y="490" type="curve" smooth="yes"/>
			<point x="426" y="490"/>
			<point x="367" y="432"/>
			<point x="326" y="338" type="curve"/>
			<point x="328" y="336" type="line"/>
			<point x="321" y="433"/>
			<point x="281" y="490"/>
			<point x="209" y="490" type="curve" smooth="yes"/>
			<point x="94" y="490"/>
			<point x="-10" y="358"/>
			<point x="-10" y="168" type="curve" smooth="yes"/>
			<point x="-10" y="55"/>
			<point x="32" y="-12"/>
		</contour>
		<contour>
			<point x="20" y="169" type="curve" smooth="yes"/>
			<point x="20" y="324"/>
			<point x="102" y="465"/>
			<point x="209" y="465" type="curve" smooth="yes"/>
			<point x="269" y="465"/>
			<point x="302" y="404"/>
			<point x="302" y="305" type="curve" smooth="yes"/>
			<point x="302" y="147"/>
			<point x="218" y="13"/>
			<point x="121" y="13" type="curve" smooth="yes"/>
			<point x="54" y="13"/>
			<point x="20" y="76"/>
		</contour>
	</outline>
	<anchor name="aboveLC" x="340" y="500"/>
	<anchor name="baseLC" x="420" y="0"/>
	<anchor name="belowLC" x="270" y="-20"/>
</glyph>
<glyph name="tbar" format="2">
	<unicode hex="0167"/>
	<advance width="600"/>
	<outline>
		<contour>
			<point x="50" y="242" type="line"/>
			<point x="468" y="242" type="line"/>
			<point x="472" y="268" type="line"/>
			<point x="204" y="268" type="line"/>
			<point x="54" y="264" type="line"/>
		</contour>
		<component base="t"/>
	</outline>
	<anchor name="aboveLC" x="280" y="630"/>
	<anchor name="belowLC" x="310" y="-20"/>
</glyph>
<glyph name="rsmall" format="2">
	<unicode hex="0280"/>
	<advance width="600"/>
	<outline>
		<contour>
			<point x="92" y="0" type="line"/>
			<point x="120" y="0" type="line"/>
			<point x="164" y="216" type="line"/>
			<point x="335" y="216" type="line"/>
			<point x="448" y="216"/>
			<point x="518" y="280"/>
			<point x="518" y="370" type="curve" smooth="yes"/>
			<point x="518" y="448"/>
			<point x="464" y="478"/>
			<point x="378" y="478" type="curve" smooth="yes"/>
			<point x="188" y="478" type="line"/>
		</contour>
		<contour>
			<point x="170" y="242" type="line"/>
			<point x="210" y="452" type="line"/>
			<point x="362" y="452" type="line" smooth="yes"/>
			<point x="440" y="452"/>
			<point x="490" y="428"/>
			<point x="490" y="364" type="curve" smooth="yes"/>
			<point x="490" y="296"/>
			<point x="430" y="242"/>
			<point x="322" y="242" type="curve" smooth="yes"/>
		</contour>
		<contour>
			<point x="430" y="0" type="line"/>
			<point x="462" y="0" type="line"/>
			<point x="356" y="230" type="line"/>
			<point x="330" y="218" type="line"/>
		</contour>
	</outline>
	<anchor name="aboveLC" x="360" y="500"/>
	<anchor name="belowLC" x="280" y="-20"/>
</glyph>
<glyph name="clickbilabial" format="2">
	<unicode hex="0298"/>
	<advance width="600"/>
	<outline>
		<contour>
			<point x="246" y="-12" type="curve" smooth="yes"/>
			<point x="432" y="-12"/>
			<point x="542" y="242"/>
			<point x="542" y="496" type="curve" smooth="yes"/>
			<point x="542" y="655"/>
			<point x="470" y="734"/>
			<point x="374" y="734" type="curve" smooth="yes"/>
			<point x="188" y="734"/>
			<point x="78" y="480"/>
			<point x="78" y="226" type="curve" smooth="yes"/>
			<point x="78" y="67"/>
			<point x="150" y="-12"/>
		</contour>
		<contour>
			<point x="248" y="14" type="curve" smooth="yes"/>
			<point x="168" y="14"/>
			<point x="106" y="83"/>
			<point x="106" y="232" type="curve" smooth="yes"/>
			<point x="106" y="461"/>
			<point x="212" y="708"/>
			<point x="372" y="708" type="curve" smooth="yes"/>
			<point x="452" y="708"/>
			<point x="514" y="639"/>
			<point x="514" y="490" type="curve" smooth="yes"/>
			<point x="514" y="261"/>
			<point x="408" y="14"/>
		</contour>
		<contour>
			<point x="304" y="314" type="curve" smooth="yes"/>
			<point x="330" y="314"/>
			<point x="358" y="340"/>
			<point x="358" y="374" type="curve" smooth="yes"/>
			<point x="358" y="398"/>
			<point x="342" y="416"/>
			<point x="314" y="416" type="curve" smooth="yes"/>
			<point x="288" y="416"/>
			<point x="260" y="390"/>
			<point x="260" y="356" type="curve" smooth="yes"/>
			<point x="260" y="332"/>
			<point x="276" y="314"/>
		</contour>
	</outline>
</glyph>
<glyph name="hsmall" format="2">
	<unicode hex="029C"/>
	<advance width="600"/>
	<outline>
		<contour>
			<point x="50" y="0" type="line"/>
			<point x="78" y="0" type="line"/>
			<point x="126" y="238" type="line"/>
			<point x="450" y="238" type="line"/>
			<point x="402" y="0" type="line"/>
			<point x="430" y="0" type="line"/>
			<point x="526" y="478" type="line"/>
			<point x="498" y="478" type="line"/>
			<point x="456" y="264" type="line"/>
			<point x="132" y="264" type="line"/>
			<point x="174" y="478" type="line"/>
			<point x="146" y="478" type="line"/>
		</contour>
	</outline>
	<anchor name="aboveLC" x="340" y="500"/>
	<anchor name="belowLC" x="234" y="-20"/>
</glyph>
<glyph name="lsmall" format="2">
	<unicode hex="029F"/>
	<advance width="600"/>
	<outline>
		<contour>
			<point x="128" y="0" type="line"/>
			<point x="480" y="0" type="line"/>
			<point x="486" y="26" type="line"/>
			<point x="162" y="26" type="line"/>
			<point x="252" y="478" type="line"/>
			<point x="224" y="478" type="line"/>
		</contour>
	</outline>
	<anchor name="aboveLC" x="240" y="500"/>
	<anchor name="belowLC" x="310" y="-20"/>
</glyph>
<glyph name="glottalstopstroke" format="2">
	<unicode hex="02A1"/>
	<advance width="600"/>
	<outline>
		<contour>
			<point x="194" y="0" type="line"/>
			<point x="222" y="0" type="line"/>
			<point x="281" y="288" type="line"/>
			<point x="484" y="288" type="line"/>
			<point x="490" y="314" type="line"/>
			<point x="316" y="314" type="line"/>
			<point x="466" y="384"/>
			<point x="534" y="462"/>
			<point x="534" y="584" type="curve" smooth="yes"/>
			<point x="534" y="678"/>
			<point x="452" y="734"/>
			<point x="352" y="734" type="curve" smooth="yes"/>
			<point x="254" y="734"/>
			<point x="190" y="694"/>
			<point x="142" y="652" type="curve"/>
			<point x="160" y="632" type="line"/>
			<point x="204" y="672"/>
			<point x="262" y="708"/>
			<point x="350" y="708" type="curve" smooth="yes"/>
			<point x="442" y="708"/>
			<point x="506" y="658"/>
			<point x="506" y="578" type="curve" smooth="yes"/>
			<point x="506" y="470"/>
			<point x="436" y="389"/>
			<point x="256" y="314" type="curve"/>
			<point x="100" y="310" type="line"/>
			<point x="96" y="288" type="line"/>
			<point x="251" y="288" type="line"/>
		</contour>
	</outline>
	<anchor name="aboveUC" x="370" y="740"/>
	<anchor name="belowLC" x="210" y="-20"/>
</glyph>
<glyph name="dezh" format="2">
	<unicode hex="02A4"/>
	<advance width="600"/>
	<outline>
		<contour>
			<point x="108" y="-12" type="curve" smooth="yes"/>
			<point x="168" y="-12"/>
			<point x="207" y="24"/>
			<point x="250" y="78" type="curve"/>
			<point x="254" y="78" type="line"/>
			<point x="242" y="0" type="line"/>
			<point x="266" y="0" type="line"/>
			<point x="412" y="722" type="line"/>
			<point x="384" y="722" type="line"/>
			<point x="340" y="506" type="line"/>
			<point x="320" y="410" type="line"/>
			<point x="316" y="410" type="line"/>
			<point x="302" y="464"/>
			<point x="256" y="490"/>
			<point x="210" y="490" type="curve" smooth="yes"/>
			<point x="90" y="490"/>
			<point x="-10" y="338"/>
			<point x="-10" y="170" type="curve" smooth="yes"/>
			<point x="-10" y="50"/>
			<point x="40" y="-12"/>
		</contour>
		<contour>
			<point x="110" y="14" type="curve" smooth="yes"/>
			<point x="56" y="14"/>
			<point x="18" y="66"/>
			<point x="18" y="176" type="curve" smooth="yes"/>
			<point x="18" y="320"/>
			<point x="106" y="464"/>
			<point x="208" y="464" type="curve" smooth="yes"/>
			<point x="248" y="464"/>
			<point x="280" y="448"/>
			<point x="312" y="366" type="curve"/>
			<point x="264" y="128" type="line"/>
			<point x="210" y="58"/>
			<point x="160" y="14"/>
		</contour>
		<contour>
			<point x="378" y="-234" type="curve" smooth="yes"/>
			<point x="490" y="-234"/>
			<point x="588" y="-126"/>
			<point x="588" y="24" type="curve" smooth="yes"/>
			<point x="588" y="122"/>
			<point x="526" y="198"/>
			<point x="392" y="152" type="curve"/>
			<point x="402" y="138" type="line"/>
			<point x="662" y="460" type="line"/>
			<point x="664" y="478" type="line"/>
			<point x="352" y="478" type="line"/>
			<point x="346" y="452" type="line"/>
			<point x="622" y="452" type="line"/>
			<point x="372" y="144" type="line"/>
			<point x="385" y="122" type="line"/>
			<point x="412" y="134"/>
			<point x="433" y="142"/>
			<point x="463" y="142" type="curve" smooth="yes"/>
			<point x="527" y="142"/>
			<point x="560" y="102"/>
			<point x="560" y="18" type="curve" smooth="yes"/>
			<point x="560" y="-110"/>
			<point x="474" y="-208"/>
			<point x="380" y="-208" type="curve" smooth="yes"/>
			<point x="318" y="-208"/>
			<point x="270" y="-170"/>
			<point x="242" y="-140" type="curve"/>
			<point x="222" y="-158" type="line"/>
			<point x="252" y="-192"/>
			<point x="305" y="-234"/>
		</contour>
	</outline>
	<anchor name="aboveUC" x="400" y="740"/>
	<anchor name="belowLC" x="250" y="-230"/>
</glyph>
<glyph name="litre" format="2">
	<unicode hex="2113"/>
	<advance width="600"/>
	<outline>
		<contour>
			<point x="298" y="-12" type="curve" smooth="yes"/>
			<point x="350" y="-12"/>
			<point x="390" y="14"/>
			<point x="422" y="40" type="curve"/>
			<point x="408" y="62" type="line"/>
			<point x="378" y="37"/>
			<point x="346" y="14"/>
			<point x="298" y="14" type="curve" smooth="yes"/>
			<point x="242" y="14"/>
			<point x="207" y="58"/>
			<point x="234" y="194" type="curve" smooth="yes"/>
			<point x="304" y="546" type="line" smooth="yes"/>
			<point x="325" y="654"/>
			<point x="369" y="708"/>
			<point x="416" y="708" type="curve" smooth="yes"/>
			<point x="450" y="708"/>
			<point x="472" y="682"/>
			<point x="472" y="622" type="curve" smooth="yes"/>
			<point x="472" y="477"/>
			<point x="288" y="256"/>
			<point x="126" y="162" type="curve"/>
			<point x="138" y="139" type="line"/>
			<point x="314" y="241"/>
			<point x="500" y="467"/>
			<point x="500" y="628" type="curve" smooth="yes"/>
			<point x="500" y="694"/>
			<point x="470" y="734"/>
			<point x="418" y="734" type="curve" smooth="yes"/>
			<point x="356" y="734"/>
			<point x="303" y="678"/>
			<point x="274" y="534" type="curve" smooth="yes"/>
			<point x="206" y="194" type="line" smooth="yes"/>
			<point x="177" y="50"/>
			<point x="216" y="-12"/>
		</contour>
	</outline>
</glyph>
<glyph name="arrowdblup" format="2">
	<unicode hex="21D1"/>
	<advance width="600"/>
	<outline>
		<contour>
			<point x="53" y="239" type="line"/>
			<point x="298" y="493" type="line"/>
			<point x="302" y="493" type="line"/>
			<point x="547" y="239" type="line"/>
			<point x="566" y="258" type="line"/>
			<point x="302" y="526" type="line"/>
			<point x="298" y="526" type="line"/>
			<point x="34" y="258" type="line"/>
		</contour>
		<contour>
			<point x="387" y="-24" type="line"/>
			<point x="414" y="-24" type="line"/>
			<point x="414" y="410" type="line"/>
			<point x="387" y="410" type="line"/>
		</contour>
		<contour>
			<point x="186" y="-24" type="line"/>
			<point x="213" y="-24" type="line"/>
			<point x="213" y="410" type="line"/>
			<point x="186" y="410" type="line"/>
		</contour>
	</outline>
</glyph>
<glyph name="arrowdbldown" format="2">
	<unicode hex="21D3"/>
	<advance width="600"/>
	<outline>
		<contour>
			<point x="298" y="-24" type="line"/>
			<point x="302" y="-24" type="line"/>
			<point x="566" y="244" type="line"/>
			<point x="547" y="263" type="line"/>
			<point x="302" y="9" type="line"/>
			<point x="298" y="9" type="line"/>
			<point x="53" y="263" type="line"/>
			<point x="34" y="244" type="line"/>
		</contour>
		<contour>
			<point x="186" y="92" type="line"/>
			<point x="213" y="92" type="line"/>
			<point x="213" y="526" type="line"/>
			<point x="186" y="526" type="line"/>
		</contour>
		<contour>
			<point x="387" y="92" type="line"/>
			<point x="414" y="92" type="line"/>
			<point x="414" y="526" type="line"/>
			<point x="387" y="526" type="line"/>
		</contour>
	</outline>
</glyph>
<glyph name="notequal" format="2">
	<unicode hex="2260"/>
	<advance width="600"/>
	<outline>
		<contour>
			<point x="133" y="87" type="line"/>
			<point x="166" y="87" type="line"/>
			<point x="246" y="217" type="line"/>
			<point x="501" y="217" type="line"/>
			<point x="501" y="244" type="line"/>
			<point x="263" y="244" type="line"/>
			<point x="370" y="416" type="line"/>
			<point x="501" y="416" type="line"/>
			<point x="501" y="443" type="line"/>
			<point x="387" y="443" type="line"/>
			<point x="467" y="573" type="line"/>
			<point x="434" y="573" type="line"/>
			<point x="354" y="443" type="line"/>
			<point x="99" y="443" type="line"/>
			<point x="99" y="416" type="line"/>
			<point x="337" y="416" type="line"/>
			<point x="230" y="244" type="line"/>
			<point x="99" y="244" type="line"/>
			<point x="99" y="217" type="line"/>
			<point x="213" y="217" type="line"/>
		</contour>
	</outline>
</glyph>
<glyph name="triangleupwhite" format="2">
	<unicode hex="25B3"/>
	<advance width="600"/>
	<outline>
		<contour>
			<point x="60" y="108" type="line"/>
			<point x="540" y="108" type="line"/>
			<point x="540" y="110" type="line"/>
			<point x="301" y="612" type="line"/>
			<point x="299" y="612" type="line"/>
			<point x="60" y="110" type="line"/>
		</contour>
		<contour>
			<point x="94" y="129" type="line"/>
			<point x="300" y="564" type="line"/>
			<point x="506" y="129" type="line"/>
		</contour>
	</outline>
</glyph>
<glyph name="triangledownwhite" format="2">
	<unicode hex="25BD"/>
	<advance width="600"/>
	<outline>
		<contour>
			<point x="299" y="88" type="line"/>
			<point x="301" y="88" type="line"/>
			<point x="540" y="590" type="line"/>
			<point x="540" y="592" type="line"/>
			<point x="60" y="592" type="line"/>
			<point x="60" y="590" type="line"/>
		</contour>
		<contour>
			<point x="300" y="136" type="line"/>
			<point x="94" y="571" type="line"/>
			<point x="506" y="571" type="line"/>
		</contour>
	</outline>
</glyph>
<glyph name="smileface" format="2">
	<unicode hex="263A"/>
	<advance width="600"/>
	<outline>
		<contour>
			<point x="300" y="48" type="curve" smooth="yes"/>
			<point x="462" y="48"/>
			<point x="580" y="168"/>
			<point x="580" y="330" type="curve" smooth="yes"/>
			<point x="580" y="492"/>
			<point x="462" y="612"/>
			<point x="300" y="612" type="curve" smooth="yes"/>
			<point x="138" y="612"/>
			<point x="20" y="492"/>
			<point x="20" y="330" type="curve" smooth="yes"/>
			<point x="20" y="168"/>
			<point x="138" y="48"/>
		</contour>
		<contour>
			<point x="300" y="74" type="curve" smooth="yes"/>
			<point x="154" y="74"/>
			<point x="50" y="180"/>
			<point x="50" y="330" type="curve" smooth="yes"/>
			<point x="50" y="480"/>
			<point x="154" y="586"/>
			<point x="300" y="586" type="curve" smooth="yes"/>
			<point x="446" y="586"/>
			<point x="550" y="480"/>
			<point x="550" y="330" type="curve" smooth="yes"/>
			<point x="550" y="180"/>
			<point x="446" y="74"/>
		</contour>
		<contour>
			<point x="222" y="344" type="curve" smooth="yes"/>
			<point x="250" y="344"/>
			<point x="266" y="370"/>
			<point x="266" y="404" type="curve" smooth="yes"/>
			<point x="266" y="438"/>
			<point x="250" y="464"/>
			<point x="222" y="464" type="curve" smooth="yes"/>
			<point x="194" y="464"/>
			<point x="178" y="438"/>
			<point x="178" y="404" type="curve" smooth="yes"/>
			<point x="178" y="370"/>
			<point x="194" y="344"/>
		</contour>
		<contour>
			<point x="378" y="344" type="curve" smooth="yes"/>
			<point x="406" y="344"/>
			<point x="422" y="370"/>
			<point x="422" y="404" type="curve" smooth="yes"/>
			<point x="422" y="438"/>
			<point x="406" y="464"/>
			<point x="378" y="464" type="curve" smooth="yes"/>
			<point x="350" y="464"/>
			<point x="334" y="438"/>
			<point x="334" y="404" type="curve" smooth="yes"/>
			<point x="334" y="370"/>
			<point x="350" y="344"/>
		</contour>
		<contour>
			<point x="300" y="152" type="curve" smooth="yes"/>
			<point x="388" y="152"/>
			<point x="446" y="202"/>
			<point x="456" y="288" type="curve"/>
			<point x="432" y="296" type="line"/>
			<point x="412" y="236"/>
			<point x="364" y="212"/>
			<point x="300" y="212" type="curve" smooth="yes"/>
			<point x="236" y="212"/>
			<point x="188" y="236"/>
			<point x="168" y="296" type="curve"/>
			<point x="144" y="288" type="line"/>
			<point x="154" y="202"/>
			<point x="212" y="152"/>
		</contour>
		<contour>
			<point x="236" y="398" type="curve" smooth="yes"/>
			<point x="228" y="398"/>
			<point x="224" y="404"/>
			<point x="224" y="412" type="curve" smooth="yes"/>
			<point x="224" y="420"/>
			<point x="228" y="426"/>
			<point x="236" y="426" type="curve" smooth="yes"/>
			<point x="244" y="426"/>
			<point x="248" y="420"/>
			<point x="248" y="412" type="curve" smooth="yes"/>
			<point x="248" y="404"/>
			<point x="244" y="398"/>
		</contour>
		<contour>
			<point x="392" y="398" type="curve" smooth="yes"/>
			<point x="384" y="398"/>
			<point x="380" y="404"/>
			<point x="380" y="412" type="curve" smooth="yes"/>
			<point x="380" y="420"/>
			<point x="384" y="426"/>
			<point x="392" y="426" type="curve" smooth="yes"/>
			<point x="400" y="426"/>
			<point x="404" y="420"/>
			<point x="404" y="412" type="curve" smooth="yes"/>
			<point x="404" y="404"/>
			<point x="400" y="398"/>
		</contour>
	</outline>
</glyph>
<glyph name=".notdef" format="2">
	<advance width="600"/>
	<outline>
		<contour>
			<point x="85" y="0" type="line"/>
			<point x="515" y="0" type="line"/>
			<point x="515" y="660" type="line"/>
			<point x="85" y="660" type="line"/>
		</contour>
		<contour>
			<point x="130" y="31" type="line"/>
			<point x="233" y="209" type="line"/>
			<point x="298" y="315" type="line"/>
			<point x="302" y="315" type="line"/>
			<point x="364" y="209" type="line"/>
			<point x="466" y="31" type="line"/>
		</contour>
		<contour>
			<point x="122" y="72" type="line"/>
			<point x="122" y="612" type="line"/>
			<point x="277" y="340" type="line"/>
		</contour>
		<contour>
			<point x="298" y="365" type="line"/>
			<point x="241" y="457" type="line"/>
			<point x="146" y="627" type="line"/>
			<point x="452" y="627" type="line"/>
			<point x="356" y="457" type="line"/>
			<point x="302" y="365" type="line"/>
		</contour>
		<contour>
			<point x="323" y="340" type="line"/>
			<point x="476" y="612" type="line"/>
			<point x="476" y="72" type="line"/>
		</contour>
	</outline>
</glyph>
<glyph name="acutecmb.cap" format="2">
	<advance width="600"/>
	<outline>
		<contour>
			<point x="372" y="716" type="line"/>
			<point x="518" y="816" type="line"/>
			<point x="500" y="842" type="line"/>
			<point x="360" y="732" type="line"/>
		</contour>
	</outline>
	<anchor name="_aboveUC" x="374" y="680"/>
</glyph>
<glyph name="hyphen.a" format="2">
	<advance width="600"/>
	<outline>
		<contour>
			<point x="128" y="232" type="line"/>
			<point x="442" y="232" type="line"/>
			<point x="450" y="270" type="line"/>
			<point x="136" y="270" type="line"/>
		</contour>
	</outline>
</glyph>
